# Blender v2.79 (sub 0) OBJ File: 'derrick.blend'
# www.blender.org
mtllib derrick.mtl
o derrick_mirrored
v 3.000000 0.000000 3.000000
v 3.000000 0.500000 3.000000
v 3.000000 0.000000 -2.000000
v 3.000000 0.500000 -2.000000
v -2.000000 0.000000 3.000000
v -2.000000 0.500000 3.000000
v -2.000000 0.000000 -2.000000
v -2.000000 0.500000 -2.000000
v 2.874998 0.500001 -0.874999
v 2.874998 0.500001 -0.749999
v 2.874998 1.000000 -0.749999
v 2.874998 1.000000 -0.874999
v 2.624998 0.500001 -0.749999
v 2.624998 1.000000 -0.749999
v 2.624998 0.500001 -0.874999
v 2.624998 1.000000 -0.874999
v 2.999998 1.000000 -0.999999
v 2.999998 1.000001 0.000001
v 2.999998 2.000001 0.000001
v 2.999998 2.000000 -0.999999
v 2.499998 1.000001 0.000001
v 2.499998 2.000001 0.000001
v 2.499998 1.000000 -0.999999
v 2.499998 2.000000 -0.999999
v 2.874998 0.500001 -0.249999
v 2.874998 0.500001 -0.124999
v 2.874998 1.000001 -0.124999
v 2.874998 1.000001 -0.249999
v 2.624998 0.500001 -0.124999
v 2.624998 1.000001 -0.124999
v 2.624998 0.500001 -0.249999
v 2.624998 1.000001 -0.249999
v -0.750000 0.500000 2.000000
v -0.750000 4.000000 2.000000
v -0.750000 0.500000 1.750000
v -0.750000 4.000000 1.750000
v -1.000000 0.500000 2.000000
v -1.000000 4.000000 2.000000
v -1.000000 0.500000 1.750000
v -1.000000 4.000000 1.750000
v 2.000000 0.500000 2.000000
v 2.000000 4.000000 2.000000
v 2.000000 0.500000 1.750000
v 2.000000 4.000000 1.750000
v 1.750000 0.500000 2.000000
v 1.750000 4.000000 2.000000
v 1.750000 0.500000 1.750000
v 1.750000 4.000000 1.750000
v -0.750000 0.500000 -0.750000
v -0.750000 4.000000 -0.750000
v -0.750000 0.500000 -1.000000
v -0.750000 4.000000 -1.000000
v -1.000000 0.500000 -0.750000
v -1.000000 4.000000 -0.750000
v -1.000000 0.500000 -1.000000
v -1.000000 4.000000 -1.000000
v 2.000000 0.500000 -0.750000
v 2.000000 4.000000 -0.750000
v 2.000000 0.500000 -1.000000
v 2.000000 4.000000 -1.000000
v 1.750000 0.500000 -0.750000
v 1.750000 4.000000 -0.750000
v 1.750000 0.500000 -1.000000
v 1.750000 4.000000 -1.000000
v 2.000000 0.500000 0.125000
v 2.000000 3.000000 0.125000
v 2.000000 0.500000 0.875000
v 2.000000 3.000000 0.875000
v 2.062500 0.500000 0.125000
v 2.062500 3.000000 0.125000
v 2.062500 0.500000 0.875000
v 2.062500 3.000000 0.875000
v 2.000000 3.000000 -0.750000
v 2.000000 4.000000 -0.750000
v 2.000000 3.000000 1.750000
v 2.000000 4.000000 1.750000
v 1.937500 3.000000 -0.750000
v 1.937500 4.000000 -0.750000
v 1.937500 3.000000 1.750000
v 1.937500 4.000000 1.750000
v 1.750000 4.000000 -0.937500
v 1.750000 3.000000 -0.937500
v -0.750000 4.000000 -0.937500
v -0.750000 3.000000 -0.937500
v 1.750000 4.000000 -1.000000
v 1.750000 3.000000 -1.000000
v -0.750000 4.000000 -1.000000
v -0.750000 3.000000 -1.000000
v -1.000000 3.000000 1.750000
v -1.000000 4.000000 1.750000
v -1.000000 3.000000 -0.750000
v -1.000000 4.000000 -0.750000
v -0.937500 3.000000 1.750000
v -0.937500 4.000000 1.750000
v -0.937500 3.000000 -0.750000
v -0.937500 4.000000 -0.750000
v 2.000000 3.000000 0.062500
v 2.000000 3.000000 0.937500
v 2.000000 4.000000 0.937500
v 2.000000 4.000000 0.062500
v 1.937500 3.000000 0.062500
v 1.937500 3.000000 0.937500
v 1.937500 4.000000 0.937500
v 1.937500 4.000000 0.062500
v 2.000000 2.500000 2.000000
v 2.000000 3.000000 2.000000
v 2.000000 2.500000 -1.000000
v 2.000000 3.000000 -1.000000
v -1.000000 2.500000 2.000000
v -1.000000 3.000000 2.000000
v -1.000000 2.500000 -1.000000
v -1.000000 3.000000 -1.000000
v 1.250000 0.500000 1.250000
v 1.250000 1.000000 1.250000
v 1.250000 0.500000 -0.250000
v 1.250000 1.000000 -0.250000
v -0.250000 0.500000 1.250000
v -0.250000 1.000000 1.250000
v -0.250000 0.500000 -0.250000
v -0.250000 1.000000 -0.250000
v -1.000000 0.500000 1.000000
v -1.000000 1.000000 1.000000
v -1.000000 0.500000 0.000000
v -1.000000 1.000000 0.000000
v -2.000000 0.500000 1.000000
v -2.000000 1.000000 1.000000
v -2.000000 0.500000 0.000000
v -2.000000 1.000000 0.000000
v 1.500000 0.500000 3.000000
v 1.500000 1.500000 3.000000
v 1.500000 0.500000 2.000000
v 1.500000 1.500000 2.000000
v -0.500000 0.500000 3.000000
v -0.500000 1.500000 3.000000
v -0.500000 0.500000 2.000000
v -0.500000 1.500000 2.000000
v 0.687500 0.500000 2.000000
v 0.687500 0.875000 2.000000
v 0.687500 0.500000 1.250000
v 0.687500 0.875000 1.250000
v 0.312500 0.500000 2.000000
v 0.312500 0.875000 2.000000
v 0.312500 0.500000 1.250000
v 0.312500 0.875000 1.250000
v -1.000000 0.500000 0.687500
v -1.000000 0.875000 0.687500
v -0.250000 0.500000 0.687500
v -0.250000 0.875000 0.687500
v -1.000000 0.500000 0.312500
v -1.000000 0.875000 0.312500
v -0.250000 0.500000 0.312500
v -0.250000 0.875000 0.312500
v 0.375000 0.500000 -0.250000
v 0.375000 0.750000 -0.250000
v 0.375000 0.500000 -1.000000
v 0.375000 0.750000 -1.000000
v 0.125000 0.500000 -0.250000
v 0.125000 0.750000 -0.250000
v 0.125000 0.500000 -1.000000
v 0.125000 0.750000 -1.000000
v 0.875000 0.500000 -0.250000
v 0.875000 0.750000 -0.250000
v 0.875000 0.500000 -1.000000
v 0.875000 0.750000 -1.000000
v 0.625000 0.500000 -0.250000
v 0.625000 0.750000 -0.250000
v 0.625000 0.500000 -1.000000
v 0.625000 0.750000 -1.000000
v 1.750000 0.500000 -1.000000
v 1.750000 2.000000 -1.000000
v 1.750000 0.500000 -2.000000
v 1.750000 2.000000 -2.000000
v -0.750000 0.500000 -1.000000
v -0.750000 2.000000 -1.000000
v -0.750000 0.500000 -2.000000
v -0.750000 2.000000 -2.000000
v 1.250000 0.500000 0.812500
v 2.000000 0.500000 0.812500
v 1.250000 0.500000 0.187500
v 2.000000 0.500000 0.187500
v 1.250000 1.125000 0.812500
v 2.000000 1.125000 0.812500
v 1.250000 1.125000 0.187500
v 2.000000 1.125000 0.187500
v 1.750000 3.000000 2.000000
v 1.750000 4.000000 2.000000
v -0.750000 3.000000 2.000000
v -0.750000 4.000000 2.000000
v 1.750000 3.000000 1.937500
v 1.750000 4.000000 1.937500
v -0.750000 3.000000 1.937500
v -0.750000 4.000000 1.937500
v 2.000000 2.500000 2.000000
v 2.000000 3.000000 2.000000
v 2.000000 2.500000 -1.000000
v 2.000000 3.000000 -1.000000
v -1.000000 2.500000 2.000000
v -1.000000 3.000000 2.000000
v -1.000000 2.500000 -1.000000
v -1.000000 3.000000 -1.000000
vt 0.416667 0.541667
vt 0.000000 0.541667
vt 0.000000 0.583333
vt 0.416667 0.583333
vt 0.416667 0.541667
vt 0.000000 0.541667
vt 0.000000 0.583333
vt 0.416667 0.583333
vt 0.416667 0.500000
vt 0.000000 0.500000
vt 0.000000 0.541667
vt 0.416667 0.541667
vt 0.416667 0.500000
vt 0.000000 0.500000
vt 0.000000 0.541667
vt 0.416667 0.541667
vt 0.416667 0.583333
vt 0.416667 1.000000
vt 0.833333 1.000000
vt 0.833333 0.583333
vt 0.416667 1.000000
vt 0.416667 0.583333
vt 0.000000 0.583333
vt 0.000000 1.000000
vt 0.260417 0.375000
vt 0.260417 0.333333
vt 0.270833 0.333333
vt 0.270833 0.375000
vt 0.291667 0.333333
vt 0.291667 0.375000
vt 0.270833 0.375000
vt 0.270833 0.333333
vt 0.260417 0.375000
vt 0.260417 0.333333
vt 0.270833 0.333333
vt 0.270833 0.375000
vt 0.291667 0.333333
vt 0.291667 0.375000
vt 0.270833 0.375000
vt 0.270833 0.333333
vt 0.375000 0.333333
vt 0.375000 0.416667
vt 0.291667 0.416667
vt 0.291667 0.333333
vt 0.250000 0.250000
vt 0.250000 0.333333
vt 0.208333 0.333333
vt 0.208333 0.250000
vt 0.291667 0.250000
vt 0.291667 0.333333
vt 0.208333 0.333333
vt 0.208333 0.250000
vt 0.291667 0.250000
vt 0.291667 0.333333
vt 0.250000 0.333333
vt 0.250000 0.250000
vt 0.291667 0.291667
vt 0.291667 0.333333
vt 0.208333 0.333333
vt 0.208333 0.291667
vt 0.291667 0.250000
vt 0.291667 0.291667
vt 0.208333 0.291667
vt 0.208333 0.250000
vt 0.260417 0.375000
vt 0.260417 0.333333
vt 0.270833 0.333333
vt 0.270833 0.375000
vt 0.291667 0.333333
vt 0.291667 0.375000
vt 0.270833 0.375000
vt 0.270833 0.333333
vt 0.260417 0.375000
vt 0.260417 0.333333
vt 0.270833 0.333333
vt 0.270833 0.375000
vt 0.291667 0.333333
vt 0.291667 0.375000
vt 0.270833 0.375000
vt 0.270833 0.333333
vt 0.135417 0.208333
vt 0.114583 0.208333
vt 0.114583 0.500000
vt 0.135417 0.500000
vt 0.135417 0.208333
vt 0.114583 0.208333
vt 0.114583 0.500000
vt 0.135417 0.500000
vt 0.135417 0.208333
vt 0.114583 0.208333
vt 0.114583 0.500000
vt 0.135417 0.500000
vt 0.135417 0.208333
vt 0.114583 0.208333
vt 0.114583 0.500000
vt 0.135417 0.500000
vt 0.135417 0.187500
vt 0.114583 0.187500
vt 0.135417 0.208333
vt 0.135417 0.187500
vt 0.114583 0.187500
vt 0.114583 0.208333
vt 0.135417 0.208333
vt 0.114583 0.208333
vt 0.114583 0.500000
vt 0.135417 0.500000
vt 0.135417 0.208333
vt 0.114583 0.208333
vt 0.114583 0.500000
vt 0.135417 0.500000
vt 0.135417 0.208333
vt 0.114583 0.208333
vt 0.114583 0.500000
vt 0.135417 0.500000
vt 0.135417 0.208333
vt 0.114583 0.208333
vt 0.114583 0.500000
vt 0.135417 0.500000
vt 0.135417 0.187500
vt 0.114583 0.187500
vt 0.135417 0.208333
vt 0.135417 0.187500
vt 0.114583 0.187500
vt 0.114583 0.208333
vt 0.135417 0.208333
vt 0.114583 0.208333
vt 0.114583 0.500000
vt 0.135417 0.500000
vt 0.135417 0.208333
vt 0.114583 0.208333
vt 0.114583 0.500000
vt 0.135417 0.500000
vt 0.135417 0.208333
vt 0.114583 0.208333
vt 0.114583 0.500000
vt 0.135417 0.500000
vt 0.135417 0.208333
vt 0.114583 0.208333
vt 0.114583 0.500000
vt 0.135417 0.500000
vt 0.135417 0.187500
vt 0.114583 0.187500
vt 0.135417 0.208333
vt 0.135417 0.187500
vt 0.114583 0.187500
vt 0.114583 0.208333
vt 0.135417 0.208333
vt 0.114583 0.208333
vt 0.114583 0.500000
vt 0.135417 0.500000
vt 0.135417 0.208333
vt 0.114583 0.208333
vt 0.114583 0.500000
vt 0.135417 0.500000
vt 0.135417 0.208333
vt 0.114583 0.208333
vt 0.114583 0.500000
vt 0.135417 0.500000
vt 0.135417 0.208333
vt 0.114583 0.208333
vt 0.114583 0.500000
vt 0.135417 0.500000
vt 0.135417 0.187500
vt 0.114583 0.187500
vt 0.135417 0.208333
vt 0.135417 0.187500
vt 0.114583 0.187500
vt 0.114583 0.208333
vt 0.520833 0.041667
vt 0.583333 0.041667
vt 0.583333 0.250000
vt 0.520833 0.250000
vt 0.578125 0.041667
vt 0.578125 0.250000
vt 0.583333 0.041667
vt 0.520833 0.041667
vt 0.520833 0.250000
vt 0.583333 0.250000
vt 0.526042 0.041667
vt 0.526042 0.250000
vt 0.578125 0.177083
vt 0.578125 0.250000
vt 0.583333 0.177083
vt 0.000000 0.359375
vt 0.000000 0.291667
vt 0.078125 0.291667
vt 0.078125 0.359375
vt 0.000000 0.432292
vt 0.078125 0.432292
vt 0.078125 0.500000
vt 0.000000 0.500000
vt 0.083333 0.359375
vt 0.078125 0.359375
vt 0.078125 0.291667
vt 0.083333 0.291667
vt 0.083333 0.500000
vt 0.078125 0.500000
vt 0.078125 0.291667
vt 0.083333 0.291667
vt 0.000000 0.500000
vt 0.000000 0.291667
vt 0.078125 0.291667
vt 0.078125 0.500000
vt 0.000000 0.291667
vt 0.000000 0.500000
vt 0.000000 0.500000
vt 0.000000 0.291667
vt 0.078125 0.291667
vt 0.078125 0.500000
vt 0.000000 0.291667
vt 0.078125 0.291667
vt 0.078125 0.500000
vt 0.000000 0.500000
vt 0.083333 0.500000
vt 0.083333 0.291667
vt 0.083333 0.500000
vt 0.083333 0.432292
vt 0.000000 0.291667
vt 0.000000 0.359375
vt 0.005208 0.432292
vt 0.005208 0.359375
vt 0.000000 0.359375
vt 0.000000 0.432292
vt 0.000000 0.500000
vt 0.078125 0.432292
vt 0.078125 0.500000
vt 0.005208 0.359375
vt 0.000000 0.432292
vt 0.005208 0.432292
vt 0.625000 0.458333
vt 0.375000 0.458333
vt 0.375000 0.416667
vt 0.625000 0.416667
vt 0.625000 0.458333
vt 0.375000 0.458333
vt 0.375000 0.416667
vt 0.625000 0.416667
vt 0.625000 0.458333
vt 0.375000 0.458333
vt 0.375000 0.416667
vt 0.625000 0.416667
vt 0.625000 0.458333
vt 0.375000 0.458333
vt 0.375000 0.416667
vt 0.625000 0.416667
vt 0.833333 0.250000
vt 0.583333 0.250000
vt 0.583333 -0.000000
vt 0.833333 -0.000000
vt 0.833333 -0.000000
vt 0.583333 -0.000000
vt 0.583333 0.250000
vt 0.833333 0.250000
vt 0.260417 0.333333
vt 0.135417 0.333333
vt 0.135417 0.375000
vt 0.260417 0.375000
vt 0.260417 0.333333
vt 0.135417 0.333333
vt 0.135417 0.375000
vt 0.260417 0.375000
vt 0.260417 0.333333
vt 0.135417 0.333333
vt 0.135417 0.375000
vt 0.260417 0.375000
vt 0.260417 0.333333
vt 0.135417 0.333333
vt 0.135417 0.375000
vt 0.260417 0.375000
vt 0.260417 0.500000
vt 0.135417 0.500000
vt 0.291667 0.286458
vt 0.208333 0.286458
vt 0.208333 0.333333
vt 0.291667 0.333333
vt 0.291667 0.286458
vt 0.208333 0.286458
vt 0.208333 0.333333
vt 0.291667 0.333333
vt 0.541667 0.375000
vt 0.625000 0.375000
vt 0.625000 0.416667
vt 0.541667 0.416667
vt 0.291667 0.286458
vt 0.208333 0.286458
vt 0.208333 0.333333
vt 0.291667 0.333333
vt 0.291667 0.333333
vt 0.291667 0.250000
vt 0.208333 0.250000
vt 0.291667 0.250000
vt 0.375000 0.250000
vt 0.375000 0.333333
vt 0.291667 0.333333
vt 0.375000 0.333333
vt 0.541667 0.333333
vt 0.541667 0.416667
vt 0.375000 0.416667
vt 0.291667 0.250000
vt 0.375000 0.250000
vt 0.375000 0.333333
vt 0.291667 0.333333
vt 0.541667 0.250000
vt 0.375000 0.250000
vt 0.375000 0.333333
vt 0.541667 0.333333
vt 0.375000 0.416667
vt 0.541667 0.333333
vt 0.541667 0.416667
vt 0.468750 0.479167
vt 0.468750 0.541667
vt 0.437500 0.541667
vt 0.437500 0.479167
vt 0.437500 0.541667
vt 0.437500 0.479167
vt 0.468750 0.479167
vt 0.468750 0.541667
vt 0.437500 0.541667
vt 0.437500 0.479167
vt 0.468750 0.479167
vt 0.468750 0.541667
vt 0.468750 0.479167
vt 0.468750 0.541667
vt 0.437500 0.541667
vt 0.437500 0.479167
vt 0.437500 0.541667
vt 0.437500 0.479167
vt 0.468750 0.479167
vt 0.468750 0.541667
vt 0.437500 0.541667
vt 0.437500 0.479167
vt 0.468750 0.479167
vt 0.468750 0.541667
vt 0.437500 0.583333
vt 0.437500 0.520833
vt 0.416667 0.520833
vt 0.416667 0.583333
vt 0.416667 0.520833
vt 0.416667 0.583333
vt 0.437500 0.583333
vt 0.437500 0.520833
vt 0.416667 0.520833
vt 0.416667 0.583333
vt 0.437500 0.583333
vt 0.437500 0.520833
vt 0.416667 0.520833
vt 0.416667 0.583333
vt 0.437500 0.583333
vt 0.437500 0.520833
vt 0.437500 0.583333
vt 0.437500 0.520833
vt 0.416667 0.520833
vt 0.416667 0.583333
vt 0.416667 0.520833
vt 0.416667 0.583333
vt 0.437500 0.583333
vt 0.437500 0.520833
vt 0.625000 0.250000
vt 0.541667 0.250000
vt 0.541667 0.375000
vt 0.625000 0.375000
vt 0.833333 0.250000
vt 0.625000 0.250000
vt 0.625000 0.375000
vt 0.833333 0.375000
vt 0.541667 0.250000
vt 0.541667 0.375000
vt 0.625000 0.458333
vt 0.833333 0.458333
vt 0.833333 0.583333
vt 0.625000 0.583333
vt 0.625000 0.458333
vt 0.833333 0.458333
vt 0.520833 0.468750
vt 0.468750 0.468750
vt 0.468750 0.531250
vt 0.520833 0.531250
vt 0.520833 0.468750
vt 0.468750 0.468750
vt 0.468750 0.531250
vt 0.520833 0.531250
vt 0.520833 0.468750
vt 0.468750 0.468750
vt 0.468750 0.531250
vt 0.520833 0.531250
vt 0.520833 0.468750
vt 0.468750 0.468750
vt 0.468750 0.531250
vt 0.520833 0.531250
vt 0.468750 0.583333
vt 0.520833 0.583333
vt 0.520833 0.531250
vt 0.468750 0.531250
vt 0.520833 0.583333
vt 0.468750 0.583333
vt 0.000000 0.500000
vt 0.000000 0.291667
vt 0.078125 0.291667
vt 0.078125 0.500000
vt 0.000000 0.291667
vt 0.078125 0.291667
vt 0.078125 0.500000
vt 0.000000 0.500000
vt 0.083333 0.500000
vt 0.083333 0.291667
vt 0.625000 0.458333
vt 0.625000 0.416667
vt 0.375000 0.416667
vt 0.375000 0.458333
vt 0.625000 0.458333
vt 0.625000 0.416667
vt 0.375000 0.416667
vt 0.375000 0.458333
vt 0.625000 0.458333
vt 0.625000 0.416667
vt 0.375000 0.416667
vt 0.375000 0.458333
vt 0.625000 0.458333
vt 0.625000 0.416667
vt 0.375000 0.416667
vt 0.375000 0.458333
vt 0.833333 0.250000
vt 0.833333 -0.000000
vt 0.583333 -0.000000
vt 0.583333 0.250000
vt 0.833333 -0.000000
vt 0.833333 0.250000
vt 0.583333 0.250000
vt 0.583333 -0.000000
vn 1.0000 0.0000 0.0000
vn 0.0000 0.0000 -1.0000
vn -1.0000 0.0000 0.0000
vn 0.0000 0.0000 1.0000
vn 0.0000 -1.0000 0.0000
vn 0.0000 1.0000 0.0000
usemtl None
s off
f 1/1/1 3/2/1 4/3/1 2/4/1
f 3/5/2 7/6/2 8/7/2 4/8/2
f 7/9/3 5/10/3 6/11/3 8/12/3
f 5/13/4 1/14/4 2/15/4 6/16/4
f 3/17/5 1/18/5 5/19/5 7/20/5
f 8/21/6 6/22/6 2/23/6 4/24/6
f 9/25/1 12/26/1 11/27/1 10/28/1
f 10/29/4 11/30/4 14/31/4 13/32/4
f 13/33/3 14/34/3 16/35/3 15/36/3
f 15/37/2 16/38/2 12/39/2 9/40/2
f 17/41/1 20/42/1 19/43/1 18/44/1
f 18/45/4 19/46/4 22/47/4 21/48/4
f 21/49/3 22/50/3 24/51/3 23/52/3
f 23/53/2 24/54/2 20/55/2 17/56/2
f 18/57/5 21/58/5 23/59/5 17/60/5
f 22/61/6 19/62/6 20/63/6 24/64/6
f 25/65/1 28/66/1 27/67/1 26/68/1
f 26/69/4 27/70/4 30/71/4 29/72/4
f 29/73/3 30/74/3 32/75/3 31/76/3
f 31/77/2 32/78/2 28/79/2 25/80/2
f 33/81/1 35/82/1 36/83/1 34/84/1
f 35/85/2 39/86/2 40/87/2 36/88/2
f 39/89/3 37/90/3 38/91/3 40/92/3
f 37/93/4 33/94/4 34/95/4 38/96/4
f 35/82/5 33/81/5 37/97/5 39/98/5
f 40/99/6 38/100/6 34/101/6 36/102/6
f 41/103/1 43/104/1 44/105/1 42/106/1
f 43/107/2 47/108/2 48/109/2 44/110/2
f 47/111/3 45/112/3 46/113/3 48/114/3
f 45/115/4 41/116/4 42/117/4 46/118/4
f 43/104/5 41/103/5 45/119/5 47/120/5
f 48/121/6 46/122/6 42/123/6 44/124/6
f 49/125/1 51/126/1 52/127/1 50/128/1
f 51/129/2 55/130/2 56/131/2 52/132/2
f 55/133/3 53/134/3 54/135/3 56/136/3
f 53/137/4 49/138/4 50/139/4 54/140/4
f 51/126/5 49/125/5 53/141/5 55/142/5
f 56/143/6 54/144/6 50/145/6 52/146/6
f 57/147/1 59/148/1 60/149/1 58/150/1
f 59/151/2 63/152/2 64/153/2 60/154/2
f 63/155/3 61/156/3 62/157/3 64/158/3
f 61/159/4 57/160/4 58/161/4 62/162/4
f 59/148/5 57/147/5 61/163/5 63/164/5
f 64/165/6 62/166/6 58/167/6 60/168/6
f 65/169/3 67/170/3 68/171/3 66/172/3
f 67/170/4 71/173/4 72/174/4 68/171/4
f 71/175/1 69/176/1 70/177/1 72/178/1
f 69/179/2 65/169/2 66/172/2 70/180/2
f 66/181/6 68/182/6 72/178/6 70/183/6
f 97/184/1 73/185/1 74/186/1 100/187/1
f 101/188/3 104/189/3 78/190/3 77/191/3
f 99/192/6 103/193/6 80/194/6 76/195/6
f 87/196/6 83/197/6 81/198/6 85/199/6
f 86/200/2 88/201/2 87/202/2 85/203/2
f 82/204/4 81/198/4 83/197/4 84/205/4
f 91/206/3 89/207/3 90/208/3 92/209/3
f 95/210/1 96/211/1 94/212/1 93/213/1
f 90/214/6 94/212/6 96/211/6 92/215/6
f 74/216/6 78/190/6 104/189/6 100/217/6
f 79/218/3 80/194/3 103/193/3 102/219/3
f 102/220/2 103/221/2 99/222/2 98/223/2
f 75/224/1 98/223/1 99/225/1 76/226/1
f 101/227/4 97/184/4 100/228/4 104/229/4
f 105/230/1 107/231/1 108/232/1 106/233/1
f 107/234/2 111/235/2 112/236/2 108/237/2
f 111/238/3 109/239/3 110/240/3 112/241/3
f 109/242/4 105/243/4 106/244/4 110/245/4
f 107/246/5 105/247/5 109/248/5 111/249/5
f 112/250/6 110/251/6 106/252/6 108/253/6
f 113/254/1 115/255/1 116/256/1 114/257/1
f 115/258/2 119/259/2 120/260/2 116/261/2
f 119/262/3 117/263/3 118/264/3 120/265/3
f 117/266/4 113/267/4 114/268/4 118/269/4
f 120/270/6 118/269/6 114/268/6 116/271/6
f 121/272/1 123/273/1 124/274/1 122/275/1
f 123/276/2 127/277/2 128/278/2 124/279/2
f 127/280/3 125/281/3 126/282/3 128/283/3
f 125/284/4 121/285/4 122/286/4 126/287/4
f 128/288/6 126/289/6 122/290/6 124/274/6
f 129/291/1 131/292/1 132/293/1 130/294/1
f 131/295/2 135/296/2 136/297/2 132/298/2
f 135/299/3 133/300/3 134/301/3 136/302/3
f 133/303/4 129/304/4 130/305/4 134/306/4
f 136/307/6 134/301/6 130/308/6 132/309/6
f 137/310/1 139/311/1 140/312/1 138/313/1
f 143/314/3 141/315/3 142/316/3 144/317/3
f 144/318/6 142/319/6 138/320/6 140/321/6
f 145/322/4 147/323/4 148/324/4 146/325/4
f 151/326/2 149/327/2 150/328/2 152/329/2
f 152/330/6 150/331/6 146/332/6 148/333/6
f 153/334/1 155/335/1 156/336/1 154/337/1
f 168/338/6 166/339/6 162/340/6 164/341/6
f 159/342/3 157/343/3 158/344/3 160/345/3
f 167/346/3 165/347/3 166/348/3 168/349/3
f 161/350/1 163/351/1 164/352/1 162/353/1
f 160/354/6 158/355/6 154/356/6 156/357/6
f 169/358/1 171/359/1 172/360/1 170/361/1
f 171/362/2 175/363/2 176/364/2 172/365/2
f 175/363/3 173/366/3 174/367/3 176/364/3
f 173/368/4 169/369/4 170/370/4 174/371/4
f 176/364/6 174/372/6 170/373/6 172/365/6
f 177/374/5 179/375/5 180/376/5 178/377/5
f 179/378/2 183/379/2 184/380/2 180/381/2
f 183/382/6 181/383/6 182/384/6 184/385/6
f 181/386/4 177/387/4 178/388/4 182/389/4
f 179/390/3 177/391/3 181/392/3 183/393/3
f 184/394/1 182/389/1 178/388/1 180/395/1
f 187/396/4 185/397/4 186/398/4 188/399/4
f 191/400/2 192/401/2 190/402/2 189/403/2
f 186/404/6 190/402/6 192/401/6 188/405/6
f 193/406/3 194/407/3 196/408/3 195/409/3
f 195/410/4 196/411/4 200/412/4 199/413/4
f 199/414/1 200/415/1 198/416/1 197/417/1
f 197/418/2 198/419/2 194/420/2 193/421/2
f 195/422/6 199/423/6 197/424/6 193/425/6
f 200/426/5 196/427/5 194/428/5 198/429/5
