# Blender v2.79 (sub 0) OBJ File: 'derrick.blend'
# www.blender.org
mtllib derrick.mtl
o derrick_pipe_segment
v -0.187500 -0.500000 0.187500
v -0.187500 0.500000 0.187500
v -0.187500 -0.500000 -0.187500
v -0.187500 0.500000 -0.187500
v 0.187500 -0.500000 0.187500
v 0.187500 0.500000 0.187500
v 0.187500 -0.500000 -0.187500
v 0.187500 0.500000 -0.187500
vt 0.468750 0.468750
vt 0.468750 0.552083
vt 0.437500 0.552083
vt 0.437500 0.468750
vt 0.468750 0.468750
vt 0.468750 0.552083
vt 0.437500 0.552083
vt 0.437500 0.468750
vt 0.468750 0.468750
vt 0.468750 0.552083
vt 0.437500 0.552083
vt 0.437500 0.468750
vt 0.468750 0.468750
vt 0.468750 0.552083
vt 0.437500 0.552083
vt 0.437500 0.468750
vn -1.0000 0.0000 0.0000
vn 0.0000 0.0000 -1.0000
vn 1.0000 0.0000 0.0000
vn 0.0000 0.0000 1.0000
usemtl None
s off
f 1/1/1 2/2/1 4/3/1 3/4/1
f 3/5/2 4/6/2 8/7/2 7/8/2
f 7/9/3 8/10/3 6/11/3 5/12/3
f 5/13/4 6/14/4 2/15/4 1/16/4
