# Model by LeastReality.
# Optimized for in-game by TwistedGate

mtllib oiltank.mtl
o oiltank_normal
v -1.000000 -0.000000 2.000000
v -2.000000 1.000000 3.000000
v -2.000000 1.000000 -2.000000
v -1.000000 0.000000 -1.000000
v 3.000000 1.000000 -2.000000
v 2.000000 0.000000 -1.000000
v 3.000000 1.000000 3.000000
v 2.000000 -0.000000 2.000000
v -2.000000 0.000000 -1.750000
v -2.000000 1.000000 -1.750000
v -2.000000 1.000000 -2.000000
v -2.000000 0.000000 -2.000000
v -1.750000 1.000000 -2.000000
v -1.750000 0.000000 -2.000000
v -1.750000 1.000000 -1.750000
v -1.750000 0.000000 -1.750000
v -2.000000 0.000000 3.000000
v -2.000000 1.000000 3.000000
v -2.000000 1.000000 2.750000
v -2.000000 0.000000 2.750000
v -1.750000 1.000000 2.750000
v -1.750000 0.000000 2.750000
v -1.750000 1.000000 3.000000
v -1.750000 0.000000 3.000000
v 2.750000 0.000000 3.000000
v 2.750000 1.000000 3.000000
v 2.750000 1.000000 2.750000
v 2.750000 0.000000 2.750000
v 3.000000 1.000000 2.750000
v 3.000000 0.000000 2.750000
v 3.000000 1.000000 3.000000
v 3.000000 0.000000 3.000000
v 2.750000 0.000000 -1.750000
v 2.750000 1.000000 -1.750000
v 2.750000 1.000000 -2.000000
v 2.750000 0.000000 -2.000000
v 3.000000 1.000000 -2.000000
v 3.000000 0.000000 -2.000000
v 3.000000 1.000000 -1.750000
v 3.000000 0.000000 -1.750000
v 3.000000 2.500000 0.000000
v 3.000000 3.000000 0.000000
v 4.000000 3.000000 0.000000
v 4.000000 2.500000 0.000000
v 4.000000 3.000000 3.000000
v 4.000000 2.500000 3.000000
v 3.000000 3.000000 3.000000
v 3.000000 2.500000 3.000000
v 3.000000 1.500000 1.000000
v 3.000000 3.000000 1.000000
v 3.937500 3.000000 1.000000
v 3.937500 1.500000 1.000000
v 3.937500 3.000000 2.000000
v 3.937500 1.500000 2.000000
v 3.000000 3.000000 2.000000
v 3.000000 1.500000 2.000000
v 3.000000 2.500000 0.000000
v 3.000000 3.000000 0.000000
v 4.000000 3.000000 0.000000
v 4.000000 2.500000 0.000000
v 4.000000 3.000000 3.000000
v 4.000000 2.500000 3.000000
v 3.000000 3.000000 3.000000
v 3.000000 2.500000 3.000000
v 3.000000 1.500000 1.000000
v 3.000000 3.000000 1.000000
v 3.937500 3.000000 1.000000
v 3.937500 1.500000 1.000000
v 3.937500 3.000000 2.000000
v 3.937500 1.500000 2.000000
v 3.000000 3.000000 2.000000
v 3.000000 1.500000 2.000000
v -2.000000 1.000000 3.000000
v -2.000000 3.000000 3.000000
v -2.000000 3.000000 -2.000000
v -2.000000 1.000000 -2.000000
v 3.000000 3.000000 -2.000000
v 3.000000 1.000000 -2.000000
v 3.000000 3.000000 3.000000
v 3.000000 1.000000 3.000000
v -2.000000 3.000000 3.000000
v -2.000000 4.000000 3.000001
v -2.000000 4.000000 -1.999999
v -2.000000 3.000000 -2.000000
v 3.000000 3.000000 -2.000000
v 3.000000 3.000000 3.000000
v 3.000000 4.000000 3.000001
v 3.000000 4.000000 -1.999999
v 3.000000 4.000000 0.000001
v 3.000000 3.000000 0.000000
v -1.937500 3.000000 2.937500
v -1.937500 4.000000 2.937501
v -1.937500 4.000000 -1.937499
v -1.937500 3.000000 -1.937500
v 2.937500 3.000000 -1.937500
v 3.000000 3.000000 2.937500
v 3.000000 4.000000 2.937501
v 2.937500 4.000000 -1.937499
v 2.937500 4.000000 0.000001
v 2.937500 3.000000 0.000000
v 3.062500 3.000625 1.125000
v 3.062500 0.500625 1.125000
v 3.062500 3.000625 1.875000
v 3.062500 0.500625 1.875000
v 3.000000 0.500625 1.875000
v 3.000000 3.000625 1.875000
v 3.000000 3.000625 1.125000
v 3.000000 0.500625 1.125000
vt 0.400000 0.000000
vt 0.500000 0.106250
vt 0.000000 0.106250
vt 0.100000 0.000000
vt 0.400000 -0.000000
vt 0.500000 0.106250
vt 0.000000 0.106250
vt 0.100000 0.000000
vt 0.400000 -0.000000
vt 0.500000 0.106250
vt 0.000000 0.106250
vt 0.100000 0.000000
vt 0.400000 -0.000000
vt 0.500000 0.106250
vt 0.000000 0.106250
vt 0.100000 0.000000
vt 1.000000 0.200000
vt 1.000000 0.500000
vt 0.700000 0.500000
vt 0.700000 0.200000
vt 0.125000 0.475000
vt 0.225000 0.475000
vt 0.225000 0.500000
vt 0.125000 0.500000
vt 0.125000 0.475000
vt 0.225000 0.475000
vt 0.225000 0.500000
vt 0.125000 0.500000
vt 0.125000 0.475000
vt 0.225000 0.475000
vt 0.225000 0.500000
vt 0.125000 0.500000
vt 0.125000 0.475000
vt 0.225000 0.475000
vt 0.225000 0.500000
vt 0.125000 0.500000
vt 0.100000 0.475000
vt 0.100000 0.500000
vt 0.125000 0.475000
vt 0.225000 0.475000
vt 0.225000 0.500000
vt 0.125000 0.500000
vt 0.125000 0.475000
vt 0.225000 0.475000
vt 0.225000 0.500000
vt 0.125000 0.500000
vt 0.125000 0.475000
vt 0.225000 0.475000
vt 0.225000 0.500000
vt 0.125000 0.500000
vt 0.125000 0.475000
vt 0.225000 0.475000
vt 0.225000 0.500000
vt 0.125000 0.500000
vt 0.100000 0.475000
vt 0.100000 0.500000
vt 0.150000 0.450000
vt 0.175000 0.450000
vt 0.175000 0.475000
vt 0.150000 0.475000
vt 0.125000 0.475000
vt 0.225000 0.475000
vt 0.225000 0.500000
vt 0.125000 0.500000
vt 0.125000 0.475000
vt 0.225000 0.475000
vt 0.225000 0.500000
vt 0.125000 0.500000
vt 0.125000 0.475000
vt 0.225000 0.475000
vt 0.225000 0.500000
vt 0.125000 0.500000
vt 0.125000 0.475000
vt 0.225000 0.475000
vt 0.225000 0.500000
vt 0.125000 0.500000
vt 0.100000 0.475000
vt 0.100000 0.500000
vt 0.125000 0.475000
vt 0.225000 0.475000
vt 0.225000 0.500000
vt 0.125000 0.500000
vt 0.125000 0.475000
vt 0.225000 0.475000
vt 0.225000 0.500000
vt 0.125000 0.500000
vt 0.125000 0.475000
vt 0.225000 0.475000
vt 0.225000 0.500000
vt 0.125000 0.500000
vt 0.125000 0.475000
vt 0.225000 0.475000
vt 0.225000 0.500000
vt 0.125000 0.500000
vt 0.100000 0.475000
vt 0.100000 0.500000
vt 0.800000 0.750000
vt 0.800000 0.800000
vt 0.700000 0.800000
vt 0.700000 0.750000
vt 1.000000 0.750000
vt 1.000000 0.806250
vt 0.700000 0.806250
vt 0.700000 0.750000
vt 0.800000 0.756250
vt 0.800000 0.800000
vt 0.700000 0.800000
vt 0.700000 0.756250
vt 0.700000 0.900000
vt 0.700000 0.800000
vt 1.000000 0.800000
vt 1.000000 0.900000
vt 1.000000 0.800000
vt 1.000000 0.900000
vt 0.700000 0.900000
vt 0.700000 0.800000
vt 0.806250 0.600000
vt 0.806250 0.750000
vt 0.900000 0.750000
vt 0.900000 0.600000
vt 1.000000 0.600000
vt 1.000000 0.750000
vt 0.900000 0.750000
vt 0.900000 0.600000
vt 0.806250 0.750000
vt 0.806250 0.600000
vt 0.800000 0.750000
vt 0.700000 0.750000
vt 0.700000 0.800000
vt 0.800000 0.800000
vt 1.000000 0.750000
vt 0.700000 0.750000
vt 0.700000 0.806250
vt 1.000000 0.806250
vt 0.800000 0.756250
vt 0.700000 0.756250
vt 0.700000 0.800000
vt 0.800000 0.800000
vt 0.700000 0.900000
vt 1.000000 0.900000
vt 1.000000 0.800000
vt 0.700000 0.800000
vt 1.000000 0.800000
vt 0.700000 0.800000
vt 0.700000 0.900000
vt 1.000000 0.900000
vt 0.806250 0.600000
vt 0.900000 0.600000
vt 0.900000 0.750000
vt 0.806250 0.750000
vt 1.000000 0.600000
vt 0.900000 0.600000
vt 0.900000 0.750000
vt 1.000000 0.750000
vt 0.806250 0.600000
vt 0.806250 0.750000
vt 1.000000 0.000000
vt 1.000000 0.200000
vt 0.500000 0.200000
vt 0.500000 0.000000
vt 0.500000 0.106250
vt 0.500000 0.306250
vt 0.000000 0.306250
vt 0.000000 0.106250
vt 0.500000 0.106250
vt 0.500000 0.306250
vt 0.000000 0.306250
vt 0.000000 0.106250
vt 0.500000 0.106250
vt 0.500000 0.306250
vt -0.000000 0.306250
vt -0.000000 0.106250
vt -0.000000 1.000000
vt 0.500000 1.000000
vt 0.500000 0.500000
vt 0.000000 0.500000
vt 1.000000 0.900000
vt 1.000000 1.000000
vt 0.500000 1.000000
vt 0.500000 0.900000
vt 1.000000 0.900000
vt 1.000000 1.000000
vt 0.500000 1.000000
vt 0.500000 0.900000
vt 1.000000 0.900000
vt 1.000000 1.000000
vt 0.500000 1.000000
vt 0.500000 0.900000
vt 1.000000 0.900000
vt 1.000000 1.000000
vt 0.800000 1.000000
vt 0.800000 0.900000
vt 0.993750 0.900000
vt 0.506250 0.900000
vt 0.506250 1.000000
vt 0.993750 1.000000
vt 0.993750 0.900000
vt 0.506250 0.900000
vt 0.506250 1.000000
vt 0.993750 1.000000
vt 1.000000 0.900000
vt 0.506250 0.900000
vt 0.506250 1.000000
vt 1.000000 1.000000
vt 0.993750 0.900000
vt 0.800000 0.900000
vt 0.800000 1.000000
vt 0.993750 1.000000
vt 0.506250 1.000000
vt 0.506250 0.900000
vt 0.512500 0.900000
vt 0.512500 1.000000
vt 1.000000 0.993750
vt 0.500000 0.993750
vt 0.500000 0.993750
vt 1.000000 0.993750
vt 0.993750 0.993750
vt 0.506250 0.993750
vt 0.800000 0.993750
vt 1.000000 0.993750
vt 0.506250 1.000000
vt 0.506250 0.900000
vt 0.512500 0.900000
vt 0.512500 1.000000
vt 0.700000 0.650000
vt 0.700000 0.900000
vt 0.693750 0.900000
vt 0.693750 0.650000
vt 0.700000 0.650000
vt 0.700000 0.900000
vt 0.625000 0.900000
vt 0.625000 0.650000
vt 0.700000 0.656250
vt 0.625000 0.656250
vt 0.625000 0.650000
vt 0.700000 0.650000
vt 0.700000 0.656250
vt 0.625000 0.656250
vt 0.625000 0.650000
vt 0.631250 0.900000
vt 0.625000 0.900000
vt 0.631250 0.650000
vn -0.7071 -0.7071 -0.0000
vn 0.0000 -0.7071 -0.7071
vn 0.7071 -0.7071 -0.0000
vn 0.0000 -0.7071 0.7071
vn 0.0000 -1.0000 -0.0000
vn -1.0000 0.0000 0.0000
vn 0.0000 0.0000 -1.0000
vn 1.0000 0.0000 0.0000
vn 0.0000 -0.0000 1.0000
vn 0.0000 1.0000 0.0000
usemtl None
s off
f 1/1/1 2/2/1 3/3/1 4/4/1
f 4/5/2 3/6/2 5/7/2 6/8/2
f 6/9/3 5/10/3 7/11/3 8/12/3
f 8/13/4 7/14/4 2/15/4 1/16/4
f 4/17/5 6/18/5 8/19/5 1/20/5
f 9/21/6 10/22/6 11/23/6 12/24/6
f 12/25/7 11/26/7 13/27/7 14/28/7
f 14/29/8 13/30/8 15/31/8 16/32/8
f 16/33/9 15/34/9 10/35/9 9/36/9
f 12/37/5 14/29/5 16/32/5 9/38/5
f 17/39/6 18/40/6 19/41/6 20/42/6
f 20/43/7 19/44/7 21/45/7 22/46/7
f 22/47/8 21/48/8 23/49/8 24/50/8
f 24/51/9 23/52/9 18/53/9 17/54/9
f 20/55/5 22/47/5 24/50/5 17/56/5
f 21/57/10 19/58/10 18/59/10 23/60/10
f 25/61/6 26/62/6 27/63/6 28/64/6
f 28/65/7 27/66/7 29/67/7 30/68/7
f 30/69/8 29/70/8 31/71/8 32/72/8
f 32/73/9 31/74/9 26/75/9 25/76/9
f 28/77/5 30/69/5 32/72/5 25/78/5
f 33/79/6 34/80/6 35/81/6 36/82/6
f 36/83/7 35/84/7 37/85/7 38/86/7
f 38/87/8 37/88/8 39/89/8 40/90/8
f 40/91/9 39/92/9 34/93/9 33/94/9
f 36/95/5 38/87/5 40/90/5 33/96/5
f 41/97/7 42/98/7 43/99/7 44/100/7
f 44/101/8 43/102/8 45/103/8 46/104/8
f 46/105/9 45/106/9 47/107/9 48/108/9
f 41/109/5 44/110/5 46/111/5 48/112/5
f 43/113/10 42/114/10 47/115/10 45/116/10
f 49/117/7 50/118/7 51/119/7 52/120/7
f 52/121/8 51/122/8 53/123/8 54/124/8
f 54/124/9 53/123/9 55/125/9 56/126/9
f 57/127/9 60/128/9 59/129/9 58/130/9
f 60/131/6 62/132/6 61/133/6 59/134/6
f 62/135/7 64/136/7 63/137/7 61/138/7
f 57/139/10 64/140/10 62/141/10 60/142/10
f 59/143/5 61/144/5 63/145/5 58/146/5
f 65/147/9 68/148/9 67/149/9 66/150/9
f 68/151/6 70/152/6 69/153/6 67/154/6
f 70/152/7 72/155/7 71/156/7 69/153/7
f 73/157/6 74/158/6 75/159/6 76/160/6
f 76/161/7 75/162/7 77/163/7 78/164/7
f 78/165/8 77/166/8 79/167/8 80/168/8
f 80/169/9 79/170/9 74/171/9 73/172/9
f 74/173/10 79/174/10 77/175/10 75/176/10
f 81/177/6 82/178/6 83/179/6 84/180/6
f 84/181/7 83/182/7 88/183/7 85/184/7
f 86/185/9 87/186/9 82/187/9 81/188/9
f 85/189/8 88/190/8 89/191/8 90/192/8
f 91/193/8 94/194/8 93/195/8 92/196/8
f 94/197/9 95/198/9 98/199/9 93/200/9
f 96/201/7 91/202/7 92/203/7 97/204/7
f 95/205/6 100/206/6 99/207/6 98/208/6
f 87/209/8 86/210/8 96/211/8 97/212/8
f 87/213/10 97/204/10 92/203/10 82/214/10
f 83/215/10 82/216/10 92/196/10 93/195/10
f 98/217/10 88/190/10 83/179/10 93/218/10
f 89/219/10 88/220/10 98/208/10 99/207/10
f 90/221/9 89/222/9 99/223/9 100/224/9
f 108/225/7 107/226/7 101/227/7 102/228/7
f 102/229/8 101/230/8 103/231/8 104/232/8
f 108/225/5 102/233/5 104/234/5 105/235/5
f 101/236/10 107/237/10 106/238/10 103/239/10
f 103/240/9 106/241/9 105/235/9 104/242/9
f 108/225/6 105/235/6 106/241/6 107/226/6
